<svg aria-hidden="true" style="position: absolute; width: 0; height: 0; overflow: hidden;" version="1.1" xmlns="http://www.w3.org/2000/svg" xmlns:xlink="http://www.w3.org/1999/xlink">
<defs>

<symbol id="icon-logo" viewBox="0 0 100 32">
<path d="M41.84 1.256l-0.368 0.032-2.288 6.456c-1.256 3.552-2.312 6.536-2.336 6.632l-0.056 0.184h1.712c1.28 0 1.736-0.024 1.8-0.104 0.040-0.048 0.392-0.976 0.776-2.056 0.376-1.080 0.792-2.248 0.92-2.6 1.76-4.928 2.984-8.44 2.952-8.472-0.056-0.048-2.736-0.104-3.112-0.072z"></path>
<path d="M48.144 1.256c-0.176 0.032-0.248 0.112-0.392 0.488-0.16 0.424-0.872 2.504-0.872 2.552 0 0.008 2.16 0.032 4.792 0.040 4.584 0.024 4.8 0.032 4.96 0.176 0.2 0.184 0.208 0.408 0.040 1.016-0.128 0.456-0.128 0.456-0.488 0.504-0.2 0.024-2.296 0.048-4.656 0.048-4.144 0-4.304 0.008-4.648 0.168-0.752 0.336-0.904 0.616-1.824 3.24-0.792 2.248-0.896 2.64-0.896 3.312 0.008 0.848 0.344 1.392 1 1.608 0.264 0.088 4.872 0.112 24.84 0.128l24.52 0.032 0.832-2.128-18.76-0.024c-10.312-0.008-18.752-0.040-18.752-0.080 0-0.032 0.12-0.384 0.272-0.776l0.264-0.72 37.632-0.040 0.224-0.504c0.36-0.816 0.592-1.496 0.536-1.56-0.032-0.032-8.504-0.056-18.816-0.056-12.992 0-18.752-0.024-18.752-0.080 0-0.048 0.104-0.392 0.224-0.76l0.232-0.68 16.992-0.048c9.344-0.024 17.88-0.056 18.96-0.064l1.968-0.008 0.4-1.024c0.224-0.56 0.4-1.024 0.392-1.032-0.008-0.016-8.52-0.024-18.904-0.024-10.384-0.008-18.904-0.024-18.928-0.048s0.072-0.384 0.216-0.8l0.248-0.76 38.080-0.032 0.416-1c0.224-0.552 0.416-1.024 0.416-1.064 0.008-0.056-51.368-0.056-51.768 0zM54.944 9.168c0.224 0.032 0.416 0.096 0.416 0.144s-0.168 0.544-0.376 1.104l-0.368 1.024h-3.064c-3.376 0-3.256 0.016-3.352-0.504-0.040-0.192 0.008-0.416 0.16-0.792 0.232-0.576 0.456-0.832 0.808-0.944 0.272-0.080 5.144-0.104 5.776-0.032z"></path>
<path d="M10.256 1.496c-0.384 1.056-0.968 2.744-0.952 2.76 0.008 0.008 2.16 0.040 4.784 0.064 4.552 0.040 4.784 0.048 4.944 0.192 0.208 0.192 0.216 0.552 0.032 1.144l-0.136 0.424h-4.624c-5 0-4.88-0.008-5.464 0.432-0.384 0.296-0.64 0.848-1.456 3.192-0.664 1.888-0.768 2.264-0.8 2.832-0.040 0.6-0.024 0.704 0.168 1.104 0.16 0.32 0.312 0.496 0.552 0.64l0.344 0.192 4.512 0.056c2.488 0.032 5.152 0.032 5.928-0.008l1.408-0.056 0.256-0.736c0.144-0.4 0.432-1.216 0.648-1.808s0.968-2.728 1.672-4.736c1.184-3.36 1.288-3.696 1.288-4.2 0-0.672-0.192-1.12-0.608-1.432l-0.296-0.232-12.12-0.040-0.080 0.216zM17.728 9.224c0.064 0.056-0.088 0.544-0.544 1.792l-0.152 0.424h-3.072c-3.328 0-3.256 0.008-3.368-0.432-0.064-0.256 0.32-1.312 0.552-1.552 0.112-0.104 0.32-0.224 0.464-0.256 0.344-0.088 6.040-0.064 6.12 0.024z"></path>
<path d="M25.736 1.392c-0.424 0.152-0.584 0.32-0.848 0.88-0.416 0.888-1.688 4.792-1.688 5.176 0 0.784 0.336 1.352 1 1.672 0.328 0.16 0.504 0.168 4.096 0.224 2.624 0.048 3.792 0.088 3.912 0.16 0.096 0.048 0.192 0.176 0.208 0.288 0.048 0.224-0.264 0.96-0.52 1.232-0.392 0.424-0.296 0.416-4.856 0.416-2.328 0-4.24 0.008-4.24 0.016 0 0.016-0.248 0.72-0.552 1.576l-0.552 1.552 5.848-0.048c3.8-0.024 5.952-0.072 6.136-0.128 0.16-0.048 0.432-0.24 0.616-0.424 0.296-0.312 0.424-0.592 1.232-2.744 0.744-1.976 0.904-2.496 0.936-2.936 0.016-0.296 0.008-0.632-0.016-0.744-0.072-0.28-0.576-0.816-0.96-1.024-0.32-0.168-0.432-0.176-4.008-0.216-3.416-0.040-3.704-0.048-3.912-0.192-0.216-0.136-0.224-0.168-0.184-0.616 0.024-0.304 0.096-0.544 0.208-0.68 0.392-0.496 0.144-0.472 4.84-0.512l4.312-0.040 0.512-1.432c0.272-0.792 0.504-1.472 0.504-1.504s-2.64-0.064-5.856-0.064c-4.736 0.008-5.92 0.024-6.168 0.112z"></path>
<path d="M6.328 18.072l-0.904 0.048-0.392 0.952c-0.216 0.528-0.384 0.968-0.368 0.984s6.824 0.048 15.128 0.080c8.296 0.024 15.088 0.072 15.088 0.096s-0.112 0.352-0.248 0.736l-0.248 0.688-8.4 0.048c-4.624 0.032-11.48 0.056-15.224 0.056h-6.816l-0.416 1c-0.224 0.544-0.408 1.016-0.408 1.040s6.84 0.040 15.2 0.040h15.2l-0.008 0.176c0 0.104-0.104 0.432-0.224 0.744l-0.216 0.56-0.592 0.048c-0.328 0.032-7.224 0.056-15.328 0.064l-14.728 0.008-0.4 1.016-0.408 1.024 1.056 0.048c0.576 0.032 7.464 0.056 15.312 0.064 7.84 0 14.256 0.032 14.256 0.064s-0.112 0.376-0.248 0.76l-0.256 0.704h-30.816l-0.4 1.008c-0.216 0.56-0.408 1.040-0.424 1.080-0.032 0.088 34.224 0.096 34.36 0.008 0.088-0.056 0.408-0.912 1.552-4.128 0.216-0.616 0.416-1.136 0.44-1.16s2.104-0.064 4.616-0.072l4.576-0.032 0.368-0.192c0.624-0.312 0.76-0.576 1.712-3.232 0.808-2.24 0.904-2.768 0.616-3.336-0.176-0.344-0.56-0.672-1.040-0.888-0.272-0.12-1.728-0.136-20.176-0.144-10.936 0-20.288 0.016-20.792 0.040zM44.12 21.2c0.296 0.152 0.344 0.416 0.16 0.968-0.232 0.688-0.112 0.672-3.616 0.696-2.584 0.024-3.064 0.008-3.064-0.088 0-0.2 0.496-1.616 0.592-1.68 0.048-0.032 1.352-0.048 2.888-0.040 2.304 0.024 2.84 0.048 3.040 0.144z"></path>
<path d="M51.88 18.072c-0.456 0.080-0.96 0.36-1.192 0.672-0.112 0.152-0.424 0.896-0.696 1.664-0.264 0.768-0.736 2.112-1.048 2.992-0.304 0.88-0.824 2.344-1.152 3.248-0.68 1.872-0.872 2.648-0.792 3.224 0.080 0.616 0.296 0.96 0.736 1.176l0.384 0.192 5.432 0.024c5.992 0.024 5.912 0.032 6.488-0.472 0.32-0.28 0.464-0.584 0.96-1.992 0.744-2.128 2.056-5.816 2.352-6.64 0.432-1.176 0.568-1.768 0.568-2.424 0-0.696-0.152-1.032-0.624-1.368l-0.336-0.232-1.776-0.064c-2.2-0.072-8.864-0.072-9.304 0zM59.152 21.112c0.528 0.088 0.72 0.32 0.656 0.776-0.048 0.392-1.816 5.44-2.016 5.784-0.072 0.128-0.272 0.312-0.432 0.4-0.288 0.16-0.408 0.168-3.112 0.168h-2.808l-0.16-0.256c-0.088-0.144-0.16-0.376-0.16-0.512s0.216-0.872 0.488-1.64c0.264-0.768 0.68-1.944 0.912-2.616 0.24-0.68 0.496-1.336 0.576-1.472 0.2-0.344 0.52-0.56 0.92-0.632 0.488-0.072 4.664-0.072 5.136 0z"></path>
<path d="M68 18.072c-1.488 0.056-1.68 0.12-2.040 0.664-0.176 0.264-0.824 2.064-1.592 4.424-0.224 0.68-0.272 1.456-0.12 1.856 0.112 0.304 0.448 0.64 0.832 0.848 0.304 0.16 0.488 0.176 3.24 0.232 4.944 0.096 4.68 0.088 4.872 0.256 0.096 0.088 0.168 0.216 0.168 0.288 0 0.28-0.392 1.016-0.672 1.264-0.16 0.144-0.304 0.264-0.312 0.272-0.008 0.016-1.96 0.040-4.336 0.064l-4.312 0.040-0.152 0.4c-0.080 0.216-0.328 0.896-0.536 1.504l-0.384 1.096 5.928-0.016c6.712-0.024 6.312 0.016 6.784-0.672 0.192-0.28 0.896-2.032 1.888-4.704 0.16-0.448 0.16-1.464 0-1.776-0.168-0.32-0.56-0.656-1.016-0.864-0.344-0.152-0.56-0.16-4.008-0.2-3.456-0.048-3.664-0.056-3.824-0.2-0.144-0.136-0.16-0.208-0.12-0.56 0.072-0.544 0.248-0.824 0.632-1.032 0.312-0.176 0.392-0.176 4.52-0.2 4.088-0.024 9.144 0.064 9.24 0.16 0.024 0.024 0.008 0.144-0.048 0.272-0.12 0.32-3.32 9.392-3.392 9.608l-0.048 0.184h3.504l0.12-0.336c0.072-0.192 0.272-0.76 0.448-1.264 0.184-0.504 0.8-2.256 1.376-3.88 0.576-1.632 1.184-3.336 1.352-3.8l0.304-0.84 2.152-0.056c1.184-0.032 2.4-0.072 2.704-0.080l0.552-0.024 0.504-1.432c0.28-0.792 0.488-1.456 0.464-1.48-0.064-0.064-23-0.072-24.672-0.016z"></path>
</symbol>

<symbol id="icon-close" viewBox="0 0 32 32">
<path d="M26.667 7.303l-1.97-1.97-7.808 7.808-7.808-7.808-1.97 1.97 7.808 7.808-7.808 7.808 1.97 1.97 7.808-7.808 7.808 7.808 1.97-1.97-7.808-7.808 7.808-7.808z"></path>
</symbol>

<symbol id="icon-burger" viewBox="0 0 32 32">
<path d="M6.4 11.733v-2.133h19.2v2.133h-19.2zM6.4 17.067h19.2v-2.133h-19.2v2.133zM6.4 22.4h19.2v-2.133h-19.2v2.133z"></path>
</symbol>

</defs>
</svg>
